<svg width="50" height="50" viewBox="0 0 50 50" fill="none" xmlns="http://www.w3.org/2000/svg">
<g clip-path="url(#clip0_5_81)">
<path d="M28.125 9.375C28.125 8.5462 27.7958 7.75134 27.2097 7.16529C26.6237 6.57924 25.8288 6.25 25 6.25C24.1712 6.25 23.3763 6.57924 22.7903 7.16529C22.2042 7.75134 21.875 8.5462 21.875 9.375H28.125ZM18.75 9.375C18.75 7.7174 19.4085 6.12769 20.5806 4.95558C21.7527 3.78348 23.3424 3.125 25 3.125C26.6576 3.125 28.2473 3.78348 29.4194 4.95558C30.5915 6.12769 31.25 7.7174 31.25 9.375H43.75C44.1644 9.375 44.5618 9.53962 44.8549 9.83265C45.1479 10.1257 45.3125 10.5231 45.3125 10.9375C45.3125 11.3519 45.1479 11.7493 44.8549 12.0424C44.5618 12.3354 44.1644 12.5 43.75 12.5H41.9875L41.2594 17.8438C37.4172 15.6714 32.8866 15.0605 28.6062 16.1375C24.3259 17.2145 20.6239 19.897 18.2674 23.629C15.9109 27.361 15.0804 31.8566 15.9481 36.1842C16.8158 40.5119 19.3151 44.3398 22.9281 46.875H19.5187C17.6297 46.875 15.8047 46.1905 14.3816 44.9483C12.9584 43.7062 12.0335 41.9904 11.7781 40.1188L8.0125 12.5H6.25C5.8356 12.5 5.43817 12.3354 5.14515 12.0424C4.85212 11.7493 4.6875 11.3519 4.6875 10.9375C4.6875 10.5231 4.85212 10.1257 5.14515 9.83265C5.43817 9.53962 5.8356 9.375 6.25 9.375H18.75ZM32.8125 46.875C34.6592 46.875 36.4878 46.5113 38.194 45.8046C39.9001 45.0979 41.4504 44.062 42.7562 42.7562C44.062 41.4504 45.0979 39.9001 45.8046 38.194C46.5113 36.4878 46.875 34.6592 46.875 32.8125C46.875 30.9658 46.5113 29.1372 45.8046 27.431C45.0979 25.7249 44.062 24.1746 42.7562 22.8688C41.4504 21.563 39.9001 20.5272 38.194 19.8204C36.4878 19.1137 34.6592 18.75 32.8125 18.75C29.0829 18.75 25.506 20.2316 22.8688 22.8688C20.2316 25.506 18.75 29.0829 18.75 32.8125C18.75 36.5421 20.2316 40.119 22.8688 42.7562C25.506 45.3934 29.0829 46.875 32.8125 46.875ZM30.0125 26.8875L27.2094 29.6875H32.0312C33.1598 29.6875 34.2773 29.9098 35.3199 30.3417C36.3626 30.7735 37.3099 31.4065 38.1079 32.2045C38.906 33.0026 39.539 33.9499 39.9708 34.9926C40.4027 36.0352 40.625 37.1527 40.625 38.2812V39.0625C40.625 39.4769 40.4604 39.8743 40.1674 40.1674C39.8743 40.4604 39.4769 40.625 39.0625 40.625C38.6481 40.625 38.2507 40.4604 37.9576 40.1674C37.6646 39.8743 37.5 39.4769 37.5 39.0625V38.2812C37.5 36.8308 36.9238 35.4398 35.8982 34.4143C34.8727 33.3887 33.4817 32.8125 32.0312 32.8125H27.2094L30.0125 35.6125C30.3059 35.9059 30.4707 36.3038 30.4707 36.7188C30.4707 37.1337 30.3059 37.5316 30.0125 37.825C29.7191 38.1184 29.3212 38.2832 28.9062 38.2832C28.4913 38.2832 28.0934 38.1184 27.8 37.825L22.325 32.3438C22.1806 32.1988 22.0661 32.0268 21.9883 31.8375C21.9104 31.6483 21.8706 31.4455 21.8712 31.2409C21.8718 31.0363 21.9127 30.8337 21.9916 30.6449C22.0706 30.4561 22.186 30.2848 22.3312 30.1406L27.8 24.6719C27.9453 24.5266 28.1177 24.4114 28.3076 24.3327C28.4974 24.2541 28.7008 24.2137 28.9062 24.2137C29.1117 24.2137 29.3151 24.2541 29.5049 24.3327C29.6948 24.4114 29.8672 24.5266 30.0125 24.6719C30.1578 24.8172 30.273 24.9896 30.3516 25.1794C30.4303 25.3692 30.4707 25.5727 30.4707 25.7781C30.4707 25.9836 30.4303 26.187 30.3516 26.3768C30.273 26.5666 30.1578 26.7391 30.0125 26.8844V26.8875Z" fill="#F8F8F8"/>
</g>
<defs>
<clipPath id="clip0_5_81">
<rect width="50" height="50" fill="white"/>
</clipPath>
</defs>
</svg>
