<svg width="115" height="44" viewBox="0 0 115 44" fill="none" xmlns="http://www.w3.org/2000/svg">
<g filter="url(#filter0_d_6_144)">
<path d="M36.9213 1.8C37.7479 1.96 38.3613 2.24 38.7613 2.64C39.1879 3.04 39.4013 3.50667 39.4013 4.04C39.4013 4.92 39.1479 5.56 38.6413 5.96C38.1613 6.36 37.3879 6.52 36.3213 6.44C33.9213 6.25333 32.0413 6.13333 30.6813 6.08C29.3479 6 27.5879 5.94667 25.4013 5.92C24.4146 10.8267 23.5079 15.76 22.6813 20.72C22.3879 22.5333 22.0813 24.64 21.7613 27.04C21.4413 29.4133 21.2279 31.3333 21.1213 32.8C21.0679 33.5733 20.7479 34.1733 20.1613 34.6C19.5746 35 18.8679 35.2 18.0413 35.2C17.1613 35.2 16.4813 34.9867 16.0013 34.56C15.5213 34.1333 15.2813 33.5733 15.2813 32.88C15.2813 32.24 15.3746 31.1867 15.5613 29.72C15.7746 28.2267 16.0146 26.6667 16.2813 25.04C16.5746 23.4133 16.8013 22 16.9613 20.8C17.2546 18.7733 17.5879 16.76 17.9613 14.76C18.3346 12.76 18.7079 10.8667 19.0813 9.08C19.1613 8.68 19.2546 8.22666 19.3613 7.72C19.4679 7.18667 19.5879 6.6 19.7213 5.96C17.1079 6.04 15.0546 6.25333 13.5612 6.6C12.0679 6.94667 11.0013 7.44 10.3613 8.08C9.74792 8.69333 9.44125 9.49333 9.44125 10.48C9.44125 11.3867 9.70792 12.2533 10.2413 13.08C10.3479 13.2667 10.4013 13.4667 10.4013 13.68C10.4013 14.1867 10.0946 14.6667 9.48125 15.12C8.89458 15.5467 8.28125 15.76 7.64125 15.76C7.18792 15.76 6.81458 15.6267 6.52125 15.36C5.98792 14.9067 5.54792 14.2667 5.20125 13.44C4.85458 12.5867 4.68125 11.6267 4.68125 10.56C4.68125 8.29333 5.41458 6.48 6.88125 5.12C8.37458 3.73333 10.6279 2.72 13.6413 2.08C16.6813 1.44 20.5746 1.12 25.3212 1.12C28.2546 1.12 30.5879 1.17333 32.3213 1.28C34.0813 1.38666 35.6146 1.56 36.9213 1.8ZM49.8981 22.72C50.2448 22.72 50.5115 22.8933 50.6981 23.24C50.8848 23.5867 50.9781 24.0267 50.9781 24.56C50.9781 25.84 50.5915 26.6 49.8181 26.84C48.2181 27.4 46.4581 27.72 44.5381 27.8C44.0315 30.04 43.0315 31.84 41.5381 33.2C40.0448 34.5333 38.3515 35.2 36.4581 35.2C34.8581 35.2 33.4848 34.8133 32.3381 34.04C31.2181 33.2667 30.3648 32.24 29.7781 30.96C29.1915 29.68 28.8981 28.2933 28.8981 26.8C28.8981 24.7733 29.2848 22.9733 30.0581 21.4C30.8315 19.8 31.8981 18.56 33.2581 17.68C34.6181 16.7733 36.1248 16.32 37.7781 16.32C39.8048 16.32 41.4315 17.0267 42.6581 18.44C43.9115 19.8267 44.6448 21.5467 44.8581 23.6C46.1115 23.52 47.6048 23.2533 49.3381 22.8C49.5515 22.7467 49.7381 22.72 49.8981 22.72ZM36.7781 30.96C37.6315 30.96 38.3648 30.6133 38.9781 29.92C39.6181 29.2267 40.0448 28.2267 40.2581 26.92C39.4315 26.36 38.7915 25.6267 38.3381 24.72C37.9115 23.8133 37.6981 22.8533 37.6981 21.84C37.6981 21.4133 37.7381 20.9867 37.8181 20.56H37.6181C36.5515 20.56 35.6581 21.08 34.9381 22.12C34.2448 23.1333 33.8981 24.5733 33.8981 26.44C33.8981 27.9067 34.1781 29.0267 34.7381 29.8C35.3248 30.5733 36.0048 30.96 36.7781 30.96ZM57.945 35.2C56.3983 35.2 54.6517 35.0667 52.705 34.8C51.6383 34.6667 50.905 34.3867 50.505 33.96C50.105 33.5333 49.9317 32.84 49.985 31.88C50.1717 29.24 50.6117 25.9867 51.305 22.12C51.9983 18.2267 52.8383 14.48 53.825 10.88C54.0117 10.2133 54.385 9.74667 54.945 9.48C55.505 9.21333 56.2383 9.08 57.145 9.08C58.7717 9.08 59.585 9.53333 59.585 10.44C59.585 10.8133 59.505 11.24 59.345 11.72C58.6517 13.8533 57.9583 16.72 57.265 20.32C56.5717 23.8933 56.0783 27.3067 55.785 30.56C56.585 30.64 57.4917 30.68 58.505 30.68C63.1717 30.68 66.6517 29.2667 68.945 26.44C71.265 23.6133 72.425 19.84 72.425 15.12C72.425 11.9467 71.5183 9.49333 69.705 7.76C67.8917 6.02666 65.3317 5.16 62.025 5.16C59.8917 5.16 57.7717 5.49333 55.665 6.16C53.585 6.82667 51.705 7.70667 50.025 8.8C49.6783 9.04 49.305 9.16 48.905 9.16C48.4517 9.16 48.0917 8.97333 47.825 8.6C47.5583 8.2 47.425 7.72 47.425 7.16C47.425 6.52 47.5317 6 47.745 5.6C47.9583 5.17333 48.3183 4.78666 48.825 4.44C50.665 3.18666 52.825 2.24 55.305 1.6C57.785 0.933332 60.1717 0.599999 62.465 0.599999C65.7183 0.599999 68.5317 1.17333 70.905 2.32C73.2783 3.44 75.105 5.09333 76.385 7.28C77.665 9.46667 78.305 12.1067 78.305 15.2C78.305 19.2267 77.505 22.7467 75.905 25.76C74.305 28.7467 71.9717 31.0667 68.905 32.72C65.8383 34.3733 62.185 35.2 57.945 35.2ZM94.2625 35.2C91.8892 35.2 89.7425 34.6667 87.8225 33.6C85.9292 32.5333 84.4225 30.9733 83.3025 28.92C82.1825 26.84 81.6225 24.36 81.6225 21.48C81.6225 17.4267 82.3558 13.8533 83.8225 10.76C85.3158 7.66666 87.3292 5.28 89.8625 3.6C92.4225 1.92 95.2492 1.08 98.3425 1.08C100.716 1.08 102.849 1.61333 104.743 2.68C106.663 3.74667 108.183 5.32 109.303 7.4C110.423 9.45333 110.983 11.92 110.983 14.8C110.983 18.8533 110.236 22.4267 108.743 25.52C107.276 28.6133 105.263 31 102.703 32.68C100.169 34.36 97.3558 35.2 94.2625 35.2ZM94.6625 30.48C96.7425 30.48 98.5692 29.84 100.143 28.56C101.743 27.28 102.969 25.5067 103.823 23.24C104.676 20.9467 105.103 18.36 105.103 15.48C105.103 12.3067 104.436 9.90666 103.103 8.28C101.769 6.62667 100.049 5.8 97.9425 5.8C95.8892 5.8 94.0758 6.44 92.5025 7.72C90.9292 8.97333 89.7025 10.7467 88.8225 13.04C87.9425 15.3067 87.5025 17.8933 87.5025 20.8C87.5025 23.9733 88.1692 26.3867 89.5025 28.04C90.8358 29.6667 92.5558 30.48 94.6625 30.48Z" fill="white"/>
</g>
<defs>
<filter id="filter0_d_6_144" x="0.681274" y="0.600006" width="114.301" height="42.6" filterUnits="userSpaceOnUse" color-interpolation-filters="sRGB">
<feFlood flood-opacity="0" result="BackgroundImageFix"/>
<feColorMatrix in="SourceAlpha" type="matrix" values="0 0 0 0 0 0 0 0 0 0 0 0 0 0 0 0 0 0 127 0" result="hardAlpha"/>
<feOffset dy="4"/>
<feGaussianBlur stdDeviation="2"/>
<feComposite in2="hardAlpha" operator="out"/>
<feColorMatrix type="matrix" values="0 0 0 0 0 0 0 0 0 0 0 0 0 0 0 0 0 0 0.25 0"/>
<feBlend mode="normal" in2="BackgroundImageFix" result="effect1_dropShadow_6_144"/>
<feBlend mode="normal" in="SourceGraphic" in2="effect1_dropShadow_6_144" result="shape"/>
</filter>
</defs>
</svg>
